<svg width="560" height="687" viewBox="0 0 560 687" fill="none" xmlns="http://www.w3.org/2000/svg">
<path d="M328 124.5L901 -215V-34.4503L402 145L328 124.5Z" fill="#F2CDAC"/>
<path d="M211 119.801L430.514 -199L614 -79.8689L273 137L211 119.801Z" fill="#626070"/>
<path d="M429.729 270.534C403.172 297.741 383.858 309.104 383.858 309.104L388.687 315.986C388.687 315.986 415.243 294.7 429.729 278.216V270.534Z" fill="#F8F4F0"/>
<path d="M388.687 316.626C388.687 316.626 388.365 316.626 388.365 316.466L383.536 309.584C383.536 309.584 383.536 309.424 383.536 309.264C383.536 309.104 383.536 309.104 383.697 308.944C383.858 308.944 403.172 297.261 429.407 270.374C429.407 270.374 429.729 270.214 429.889 270.374C430.05 270.374 430.211 270.694 430.211 270.854V278.536C430.211 278.536 430.211 278.696 430.211 278.856C415.887 295.341 389.33 316.626 389.169 316.786C389.169 316.786 389.008 316.786 388.847 316.786L388.687 316.626ZM384.663 309.264L388.847 315.346C392.227 312.625 415.887 293.26 429.246 278.056V271.814C405.425 295.821 387.56 307.504 384.663 309.424V309.264Z" fill="#101720"/>
<path d="M363.418 277.896C336.862 305.103 317.548 316.466 317.548 316.466L322.376 323.348C322.376 323.348 348.933 302.062 363.418 285.578V277.896Z" fill="#F8F4F0"/>
<path d="M322.376 323.828C322.376 323.828 322.054 323.828 322.054 323.668L317.225 316.786C317.225 316.786 317.225 316.626 317.225 316.466C317.225 316.306 317.225 316.306 317.386 316.146C317.547 316.146 336.861 304.463 363.096 277.576C363.096 277.576 363.418 277.416 363.579 277.576C363.74 277.576 363.901 277.896 363.901 278.056V285.738C363.901 285.738 363.901 285.898 363.901 286.058C349.576 302.543 323.02 323.828 322.859 323.988C322.859 323.988 322.698 323.988 322.537 323.988L322.376 323.828ZM318.352 316.626L322.537 322.708C325.917 319.987 349.576 300.622 362.935 285.418V279.176C339.115 303.183 321.249 314.866 318.352 316.786V316.626Z" fill="#101720"/>
<path d="M463.045 398.568C463.045 398.568 437.454 371.681 421.52 329.91C411.702 303.983 405.425 272.455 411.38 238.046C426.831 148.102 392.71 98.4895 392.71 98.4895L506.984 62.3201C588.424 144.741 521.469 207.318 534.023 269.414C535.794 278.216 538.208 286.058 540.944 293.26C558.005 336.951 590.195 352.636 590.195 352.636L463.045 398.407V398.568Z" fill="#82C9D7"/>
<path d="M463.044 399.048H462.722C462.4 398.728 436.809 371.521 421.036 330.23C409.126 299.182 405.746 268.294 410.897 238.206C418.944 191.794 413.472 156.425 407.356 134.819C400.918 111.453 392.388 98.9696 392.227 98.9696C392.227 98.9696 392.227 98.6495 392.227 98.4895C392.227 98.3295 392.388 98.1694 392.548 98.1694L506.822 62C506.983 62 507.144 62 507.305 62C531.448 86.3263 544.645 111.293 547.704 138.02C550.44 161.546 545.289 183.632 540.3 205.077C535.149 227.323 530.16 248.288 534.506 269.414C536.115 277.736 538.529 285.738 541.427 293.26C558.165 336.311 590.194 352.316 590.516 352.476C590.677 352.476 590.838 352.796 590.838 352.956C590.838 353.116 590.838 353.276 590.516 353.436L463.205 399.208C463.205 399.208 463.205 399.208 463.044 399.208V399.048ZM393.353 98.6495C394.963 101.37 402.366 113.533 408.321 134.339C414.438 155.944 419.91 191.474 411.862 238.046C406.712 267.814 410.092 298.702 421.841 329.59C436.809 368.8 460.469 395.047 463.044 397.927L588.907 352.476C583.434 349.435 555.59 332.47 540.3 293.26C537.403 285.578 534.989 277.576 533.218 269.254C528.872 247.968 533.862 226.843 539.012 204.437C549.152 161.226 559.614 116.574 506.501 62.4801L393.192 98.3295L393.353 98.6495Z" fill="#101720"/>
<path d="M560.741 348.314L467.391 381.923C459.504 372.001 445.18 351.835 435.04 325.589C431.982 317.907 429.407 309.744 427.315 300.942C422.486 280.457 421.842 259.971 425.222 240.286C431.338 204.437 430.855 170.508 423.613 139.46C420.394 125.697 416.37 114.654 412.829 106.652L502.478 78.3242C517.768 95.1286 527.103 111.933 531.127 129.377C536.921 154.184 531.449 177.07 525.815 201.556C520.504 224.282 515.032 247.808 519.86 272.135C520.182 273.735 520.504 275.175 520.826 276.776C522.596 284.138 524.689 291.02 527.103 297.421C530.322 306.063 534.346 313.745 538.369 320.467C545.451 332.31 553.499 341.433 560.741 348.154V348.314Z" fill="#82C9D7"/>
<path d="M467.392 382.403C467.392 382.403 467.07 382.403 467.07 382.243C459.344 372.481 444.859 352.316 434.719 325.909C431.5 317.747 428.925 309.424 426.993 301.262C422.165 280.617 421.521 260.132 424.901 240.447C431.017 204.757 430.534 170.828 423.292 139.78C420.716 128.097 417.015 117.214 412.508 107.132V106.812C412.508 106.812 412.669 106.652 412.83 106.492L502.479 78.1643C502.639 78.1643 502.8 78.1643 502.961 78.1643C518.252 94.9687 527.587 111.773 531.771 129.538C537.565 154.504 532.093 177.55 526.46 201.876V202.677C521.149 225.243 515.676 248.449 520.505 272.295C520.827 273.735 520.988 275.016 521.31 276.296V276.936C523.08 283.818 525.172 290.86 527.748 297.581C530.806 305.423 534.347 312.945 539.014 320.627C545.291 331.03 552.695 340.312 561.225 348.315C561.225 348.315 561.386 348.635 561.225 348.795C561.064 348.955 561.225 349.115 560.903 349.115L467.553 382.724C467.553 382.724 467.553 382.724 467.392 382.724V382.403ZM413.635 107.132C417.98 117.054 421.682 128.097 424.257 139.46C431.5 170.668 431.983 204.597 425.867 240.447C422.487 259.972 423.131 280.297 427.959 300.942C429.89 309.104 432.466 317.427 435.524 325.429C445.663 351.515 459.827 371.521 467.553 381.283L559.776 347.994C551.568 340.152 544.164 330.87 538.048 320.627C533.542 312.945 529.84 305.423 526.782 297.421C524.207 290.7 522.114 283.658 520.505 276.776V276.136C520.022 274.855 519.861 273.575 519.539 272.135C514.711 248.128 520.022 224.762 525.333 202.197V201.396C531.288 177.23 536.6 154.344 530.806 129.538C526.782 112.093 517.447 95.4488 502.479 78.8045L413.635 106.972V107.132Z" fill="#101720"/>
<path d="M590.195 352.796L462.884 398.567C462.884 398.567 437.293 371.681 421.359 329.91L435.04 325.589C445.18 351.835 459.504 372.001 467.391 381.923L560.741 348.314C553.499 341.433 545.612 332.31 538.369 320.627C534.346 313.745 530.483 306.223 527.103 297.581L540.784 293.42C557.844 337.272 590.195 352.796 590.195 352.796Z" fill="#F2CDAC"/>
<path d="M463.046 399.048H462.724C462.402 398.728 436.972 371.681 421.038 330.23C421.038 330.07 421.038 329.75 421.36 329.59L435.041 325.429C435.363 325.429 435.524 325.429 435.685 325.749C445.824 351.835 459.988 371.841 467.713 381.603L559.937 348.314C551.729 340.472 544.325 331.19 538.209 320.947C533.703 313.265 530.001 305.743 526.943 297.741V297.421C526.943 297.421 527.104 297.261 527.265 297.101L540.945 292.94C541.267 292.94 541.428 292.94 541.589 293.26C550.441 315.826 563.317 330.71 572.491 339.192C582.47 348.474 590.518 352.316 590.679 352.476C590.84 352.476 591.001 352.796 591.001 352.956C591.001 353.116 591.001 353.276 590.679 353.436L463.368 399.208C463.368 399.208 463.368 399.208 463.207 399.208L463.046 399.048ZM422.004 330.07C436.972 368.96 460.632 395.207 463.046 397.927L588.908 352.636C586.494 351.355 579.573 347.194 571.526 339.832C562.191 331.35 549.315 316.466 540.463 293.9L527.748 297.741C530.645 305.423 534.346 312.785 538.692 320.307C544.969 330.71 552.373 339.992 560.903 347.994C560.903 347.994 561.064 348.314 560.903 348.474C560.742 348.635 560.903 348.795 560.581 348.795L467.231 382.403C467.07 382.403 466.748 382.403 466.748 382.243C459.022 372.641 444.698 352.476 434.558 326.229L421.843 330.07H422.004Z" fill="#101720"/>
<path d="M475.759 279.177C445.34 286.218 420.232 274.055 419.427 252.129C418.622 230.204 442.764 206.838 473.184 199.796C503.603 192.754 528.711 204.917 529.516 226.843C530.321 248.769 506.178 272.135 475.759 279.177Z" fill="#F2CDAC"/>
<path d="M459.182 281.577C447.755 281.577 437.454 278.696 430.051 273.095C423.13 267.813 419.267 260.612 419.106 252.129C418.301 230.044 442.605 206.357 473.185 199.316C491.211 195.155 508.272 197.715 519.056 205.877C525.976 211.159 529.839 218.361 530 226.843C530.805 248.929 506.502 272.615 475.921 279.657C470.127 280.937 464.494 281.577 459.182 281.577ZM489.924 198.355C484.612 198.355 478.979 198.996 473.346 200.276C443.248 207.158 419.267 230.364 420.072 252.129C420.394 260.291 424.095 267.173 430.694 272.295C441.156 280.297 458.056 282.697 475.76 278.696C505.858 271.814 529.839 248.608 529.034 226.843C528.713 218.681 525.011 211.799 518.412 206.678C511.169 201.236 501.19 198.355 489.924 198.355Z" fill="#101720"/>
<path d="M519.056 119.615C518.895 119.615 518.734 119.615 518.573 119.295C511.813 99.7699 494.591 82.4854 494.43 82.3254C494.269 82.1653 494.269 81.8453 494.43 81.6852C494.591 81.5252 494.913 81.5252 495.074 81.6852C495.235 81.8453 512.618 99.2898 519.377 118.975C519.377 119.295 519.377 119.455 519.056 119.615C519.056 119.615 519.056 119.615 518.895 119.615H519.056Z" fill="#101720"/>
<path d="M508.433 123.136C508.272 123.136 508.111 123.136 507.95 122.816C501.673 102.33 485.417 85.3659 485.256 85.0458C485.095 84.8858 485.095 84.5657 485.256 84.4057C485.417 84.2456 485.739 84.2456 485.9 84.4057C486.061 84.5657 502.478 101.85 508.755 122.496C508.755 122.816 508.755 122.976 508.433 123.136Z" fill="#101720"/>
<path d="M497.811 126.657C497.65 126.657 497.489 126.657 497.328 126.337C491.373 104.891 476.244 88.0867 476.083 87.9266C475.922 87.7666 475.922 87.4465 476.083 87.2865C476.244 87.1264 476.565 87.2865 476.726 87.2865C476.887 87.4465 492.178 104.411 498.294 126.017C498.294 126.337 498.294 126.497 497.972 126.657H497.811Z" fill="#101720"/>
<path d="M487.026 130.178C486.865 130.178 486.543 130.178 486.543 129.858C480.91 107.452 466.746 90.8074 466.585 90.6473C466.424 90.4873 466.585 90.1672 466.585 90.0072C466.746 89.8471 467.068 90.0072 467.229 90.0072C467.229 90.0072 481.714 106.972 487.348 129.537C487.348 129.858 487.348 130.018 487.026 130.178Z" fill="#101720"/>
<path d="M476.404 133.699C476.243 133.699 475.921 133.699 475.921 133.378C470.77 110.012 457.573 93.6882 457.412 93.5281C457.251 93.3681 457.412 93.048 457.412 92.8879C457.573 92.8879 457.894 92.8879 458.055 92.8879C458.055 92.8879 471.575 109.532 476.726 133.218C476.726 133.539 476.726 133.699 476.404 133.859V133.699Z" fill="#101720"/>
<path d="M465.781 137.22C465.62 137.22 465.298 137.22 465.298 136.899C460.47 112.573 448.398 96.4089 448.238 96.2489C448.077 96.0889 448.238 95.7688 448.238 95.6087C448.238 95.4487 448.72 95.6087 448.881 95.6087C448.881 95.6087 461.274 112.093 466.103 136.579C466.103 136.899 466.103 137.06 465.781 137.06V137.22Z" fill="#101720"/>
<path d="M454.998 140.741C454.837 140.741 454.516 140.741 454.516 140.42C450.009 115.134 438.904 99.2898 438.743 99.1298C438.582 98.9697 438.743 98.6496 438.743 98.4896C438.743 98.3295 439.225 98.4896 439.386 98.4896C439.386 98.4896 450.814 114.814 455.32 140.26C455.32 140.581 455.32 140.741 454.998 140.741Z" fill="#101720"/>
<path d="M444.376 144.261C444.215 144.261 443.893 144.101 443.893 143.941C439.869 117.694 429.729 102.01 429.568 101.85C429.568 101.69 429.568 101.37 429.568 101.21C429.729 101.21 430.051 101.21 430.212 101.21C430.212 101.21 440.674 117.214 444.698 143.621C444.698 143.941 444.698 144.101 444.376 144.101V144.261Z" fill="#101720"/>
<path d="M433.753 147.782C433.592 147.782 433.27 147.622 433.27 147.302C429.569 120.095 420.395 104.571 420.395 104.411C420.395 104.251 420.395 103.931 420.555 103.771C420.716 103.611 421.038 103.771 421.199 103.771C421.199 103.771 430.534 119.615 434.236 146.982C434.236 147.302 434.236 147.462 433.753 147.462V147.782Z" fill="#101720"/>
<path d="M532.736 261.252C555.269 264.933 545.451 290.54 506.984 318.387L517.124 322.548C517.124 322.548 534.829 310.545 548.187 291.82C561.546 273.095 553.016 256.451 532.253 254.37L532.575 261.092L532.736 261.252Z" fill="#F8F4F0"/>
<path d="M517.124 323.028C517.124 323.028 517.124 323.028 516.963 323.028L506.824 318.867C506.663 318.867 506.502 318.707 506.502 318.547C506.502 318.387 506.502 318.227 506.663 318.067C531.932 299.822 546.578 280.937 543.842 270.054C542.876 265.733 538.853 262.852 532.576 261.892C532.415 261.892 532.254 261.732 532.254 261.412L531.932 254.69V254.37C531.932 254.37 532.093 254.37 532.254 254.37C542.393 255.33 550.119 259.972 553.338 267.013C556.718 274.375 554.947 283.498 548.509 292.62C535.312 311.025 517.446 323.348 517.285 323.348C517.285 323.348 517.124 323.348 516.963 323.348L517.124 323.028ZM507.95 318.227L517.124 322.068C519.217 320.627 535.473 308.944 547.866 291.66C554.143 282.858 555.913 274.215 552.694 267.013C549.636 260.452 542.554 255.971 533.058 255.01L533.38 260.772C539.818 261.892 543.842 264.933 544.969 269.734C547.705 281.097 533.541 299.662 508.111 318.227H507.95Z" fill="#101720"/>
<path d="M403.817 165.867C375.168 180.271 363.901 192.914 363.901 192.914L369.857 197.715L403.817 165.867Z" fill="#F8F4F0"/>
<path d="M370.017 198.195C370.017 198.195 369.856 198.195 369.695 198.195L363.74 193.394C363.74 193.394 363.579 193.234 363.579 193.074C363.579 192.914 363.579 192.754 363.579 192.754C363.579 192.754 375.167 179.791 403.655 165.707C403.816 165.707 404.138 165.707 404.299 165.867C404.299 166.027 404.299 166.347 404.299 166.507L370.339 198.356C370.339 198.356 370.178 198.356 370.017 198.356V198.195ZM364.706 192.754L369.856 196.915L401.08 167.788C377.582 179.951 366.637 190.674 364.706 192.754Z" fill="#101720"/>
<path d="M414.759 336.471C388.203 363.678 368.889 375.041 368.889 375.041L373.717 381.923C373.717 381.923 400.274 360.638 414.759 344.153V336.471Z" fill="#F8F4F0"/>
<path d="M373.718 382.403C373.718 382.403 373.396 382.403 373.396 382.243L368.568 375.361C368.568 375.361 368.568 375.201 368.568 375.041C368.568 374.881 368.568 374.881 368.729 374.721C368.889 374.721 388.203 363.038 414.438 336.151C414.438 336.151 414.76 335.991 414.921 336.151C415.082 336.151 415.243 336.471 415.243 336.631V344.313C415.243 344.313 415.243 344.473 415.243 344.633C400.918 361.118 374.362 382.243 374.201 382.563C374.201 382.563 374.04 382.563 373.879 382.563L373.718 382.403ZM369.694 375.201L373.879 381.283C377.259 378.562 400.918 359.197 414.277 343.993V337.752C390.457 361.758 372.591 373.441 369.694 375.361V375.201Z" fill="#101720"/>
<path d="M503.605 335.831C477.048 363.038 457.734 374.401 457.734 374.401L462.563 381.283C462.563 381.283 489.119 359.997 503.605 343.513V335.831Z" fill="#F8F4F0"/>
<path d="M462.562 381.763C462.562 381.763 462.24 381.763 462.24 381.603L457.411 374.721C457.411 374.721 457.411 374.561 457.411 374.401C457.411 374.241 457.411 374.241 457.572 374.081C457.733 374.081 477.047 362.398 503.282 335.511C503.282 335.511 503.604 335.351 503.765 335.511C503.925 335.511 504.086 335.831 504.086 335.991V343.673C504.086 343.673 504.086 343.833 504.086 343.993C489.762 360.478 463.205 381.603 463.044 381.923C463.044 381.923 462.883 381.923 462.722 381.923L462.562 381.763ZM458.538 374.561L462.722 380.643C466.102 377.922 489.762 358.557 503.121 343.353V337.111C479.3 361.118 461.435 372.801 458.538 374.721V374.561Z" fill="#101720"/>
<path d="M571.526 330.23C580.539 338.872 569.272 363.999 554.626 381.923L560.742 386.884C560.742 386.884 588.264 359.197 577.32 330.23H571.526Z" fill="#F8F4F0"/>
<path d="M560.741 387.365C560.741 387.365 560.58 387.365 560.419 387.365L554.303 382.403C554.142 382.243 554.142 381.923 554.303 381.763C569.271 363.678 579.894 338.872 571.203 330.71C571.203 330.71 571.042 330.39 571.203 330.23C571.203 330.07 571.525 329.91 571.686 329.91H577.48C577.641 329.91 577.802 329.91 577.963 330.23C588.907 359.197 561.546 387.205 561.224 387.365C561.224 387.365 561.063 387.365 560.902 387.365H560.741ZM555.269 381.923L560.741 386.404C563.638 383.204 586.815 357.597 576.997 330.87H572.651C577.158 336.311 575.066 345.754 572.49 352.956C569.11 362.238 562.833 372.801 555.269 382.083V381.923Z" fill="#101720"/>
<path d="M156.114 233.565L154.182 257.411L179.934 254.21L178.325 241.887C182.67 241.247 190.074 239.486 193.615 234.685C198.765 227.803 195.385 214.04 195.385 214.04C195.385 214.04 200.697 212.599 199.892 209.399C198.926 206.358 194.581 206.838 194.581 206.838C192.488 199.156 186.855 184.272 186.855 184.272L149.837 191.954C149.837 191.954 150.641 197.715 151.607 205.237C152.09 208.278 147.422 211.959 147.905 215.32C148.388 218.521 154.021 221.242 154.504 223.962C155.148 228.123 155.792 231.484 156.275 233.565H156.114Z" fill="#FF7E6D"/>
<mask id="mask0_182_285" style="mask-type:luminance" maskUnits="userSpaceOnUse" x="147" y="184" width="53" height="74">
<path d="M156.118 233.725L154.186 257.411L179.938 254.21L178.329 241.887C182.674 241.247 190.078 239.486 193.619 234.685C198.769 227.803 195.389 213.88 195.389 213.88C195.389 213.88 200.7 212.439 199.896 209.238C198.93 206.198 194.584 206.678 194.584 206.678C192.492 198.996 186.859 184.272 186.859 184.272L149.841 191.954C149.841 191.954 150.645 197.715 151.611 205.237C152.094 208.278 147.426 211.959 147.909 215.32C148.392 218.521 154.025 221.242 154.508 224.122C155.152 228.283 155.796 231.644 156.278 233.725H156.118Z" fill="white"/>
</mask>
<g mask="url(#mask0_182_285)">
<path d="M193.618 234.685C188.306 238.846 172.694 235.965 167.705 230.044C162.715 224.122 169.314 218.041 168.027 211.319C166.739 204.597 163.681 195.635 163.681 195.635L146.299 212.92L155.634 240.287C155.634 240.287 168.51 243.487 171.89 248.449C175.269 253.41 171.246 260.292 171.246 260.292L191.847 252.61L193.618 234.685Z" fill="#008FB1"/>
</g>
<path d="M154.026 257.891C154.026 257.891 153.865 257.891 153.704 257.891C153.704 257.891 153.543 257.731 153.704 257.571L155.635 233.885C155.313 231.964 154.67 228.764 153.865 224.282C153.704 223.002 152.255 221.722 150.968 220.441C149.358 219.001 147.749 217.401 147.427 215.48C147.105 213.72 148.232 211.799 149.358 209.879C150.324 208.278 151.29 206.678 151.129 205.397C150.163 198.036 149.358 192.114 149.358 192.114C149.358 191.794 149.358 191.634 149.68 191.634L186.698 183.952C186.859 183.952 187.181 183.952 187.181 184.272C187.181 184.272 192.654 198.836 194.907 206.358C196.033 206.358 199.413 206.358 200.218 209.238C200.379 210.039 200.218 210.679 200.057 211.479C199.091 213.079 196.999 214.04 196.033 214.36C196.516 216.76 198.931 228.604 194.102 235.005C190.561 239.646 183.318 241.567 178.973 242.207L180.421 254.05V254.37C180.421 254.37 180.26 254.53 180.099 254.53L154.348 257.731L154.026 257.891ZM150.324 192.434C150.485 193.874 151.29 198.996 152.094 205.237C152.255 206.838 151.29 208.598 150.163 210.359C149.197 211.959 148.071 213.72 148.392 215.32C148.553 216.76 150.163 218.201 151.611 219.641C153.221 221.082 154.669 222.522 154.83 223.962C155.474 228.443 156.118 231.644 156.601 233.565L154.67 256.931L179.456 253.89L178.007 242.047C178.007 242.047 178.007 242.047 178.007 241.887C178.007 241.727 178.168 241.567 178.329 241.407C182.514 240.767 189.756 239.166 193.297 234.525C198.287 227.803 195.068 214.36 195.068 214.2C195.068 213.88 195.068 213.72 195.39 213.56C195.39 213.56 198.448 212.759 199.413 210.999C199.735 210.519 199.735 210.039 199.574 209.559C198.77 206.998 194.907 207.318 194.907 207.318C194.746 207.318 194.424 207.318 194.424 206.998C192.493 200.116 187.664 187.313 186.859 184.912L150.646 192.434H150.324Z" fill="#101720"/>
<path d="M190.237 204.597C190.237 204.597 187.822 201.236 183.316 202.517C178.809 203.797 178.487 206.838 178.487 206.838C178.487 206.838 180.902 210.199 185.086 209.238C189.271 208.278 190.237 204.597 190.237 204.597Z" fill="#F8F4F0"/>
<mask id="mask1_182_285" style="mask-type:luminance" maskUnits="userSpaceOnUse" x="178" y="202" width="13" height="8">
<path d="M190.237 204.597C190.237 204.597 187.822 201.236 183.316 202.517C178.809 203.797 178.487 206.838 178.487 206.838C178.487 206.838 180.902 210.199 185.086 209.238C189.271 208.278 190.237 204.757 190.237 204.757V204.597Z" fill="white"/>
</mask>
<g mask="url(#mask1_182_285)">
<path d="M186.213 209.239C187.902 209.239 189.271 207.877 189.271 206.198C189.271 204.518 187.902 203.157 186.213 203.157C184.525 203.157 183.155 204.518 183.155 206.198C183.155 207.877 184.525 209.239 186.213 209.239Z" fill="#101720"/>
</g>
<path d="M185.248 226.043C184.765 226.043 184.282 226.043 183.96 225.723C182.673 225.082 181.868 223.802 181.707 222.042C181.707 221.722 181.868 221.562 182.19 221.562C182.512 221.562 182.673 221.722 182.673 222.042C182.673 223.482 183.317 224.442 184.282 224.922C185.087 225.242 186.053 225.082 187.018 224.442C187.179 224.282 187.501 224.442 187.662 224.442C187.823 224.442 187.662 224.922 187.662 225.082C187.018 225.563 186.214 225.883 185.409 225.883L185.248 226.043Z" fill="#101720"/>
<path d="M178.165 202.357C178.165 202.357 178.165 202.357 178.004 202.357C177.843 202.357 177.682 201.876 177.843 201.716C178.648 200.116 180.418 198.996 182.672 198.356C185.086 197.715 187.5 198.196 189.109 199.476C189.27 199.636 189.431 199.956 189.109 200.116C188.788 200.276 188.627 200.436 188.466 200.116C187.017 199.156 184.925 198.676 182.832 199.156C180.901 199.636 179.292 200.596 178.648 201.876C178.648 202.037 178.326 202.197 178.165 202.197V202.357Z" fill="#101720"/>
<path d="M183.318 202.357C183.318 202.357 181.065 202.837 179.778 204.277C178.49 205.718 178.007 206.998 177.524 207.318L178.329 207.958C178.329 207.958 180.26 203.477 183.479 202.357H183.318Z" fill="#101720"/>
<path d="M137.93 216.92C138.574 218.041 139.378 219.001 140.022 220.121C148.713 233.245 155.151 243.807 155.151 243.807L157.244 223.162C154.508 223.322 147.587 217.721 151.45 211.319C154.669 206.037 160.302 213.239 162.072 214.36C162.394 214.52 162.716 214.68 163.038 214.68C163.36 214.68 163.521 214.04 163.521 213.719C164.325 208.758 163.843 203.637 162.072 198.836C164.808 198.516 167.705 198.195 170.281 197.235C172.856 196.275 175.27 194.514 176.397 191.954C176.397 191.794 176.558 191.474 176.719 191.314C176.719 191.314 187.019 194.835 192.17 187.473C197.32 179.951 190.882 177.23 190.882 177.23C190.882 177.23 180.742 166.507 168.671 167.948C121.191 173.869 142.114 188.913 142.114 188.913C142.114 188.913 127.468 201.876 137.769 216.92H137.93Z" fill="#82C9D7"/>
<path d="M155.311 244.288C155.15 244.288 154.989 244.288 154.828 244.128C154.828 244.128 148.229 233.405 139.699 220.441C139.216 219.641 138.733 218.841 138.089 218.201L137.446 217.401C128.111 203.477 139.216 191.474 141.469 189.073C140.021 187.953 136.319 184.432 137.285 180.111C138.733 174.189 149.356 170.028 168.67 167.628C180.258 166.187 190.398 175.95 191.203 176.91C191.686 177.07 193.778 178.35 194.583 180.751C195.226 182.832 194.583 185.232 192.651 187.953C187.823 194.835 178.971 192.754 177.039 192.114V192.434C175.752 194.835 173.498 196.915 170.44 198.036C167.865 198.996 165.29 199.316 162.715 199.476C164.163 204.117 164.646 209.078 163.841 214.04C163.841 214.36 163.68 215.16 163.037 215.32C162.554 215.48 161.91 215.32 161.588 215C161.266 214.84 160.622 214.2 159.979 213.56C158.369 212.119 155.794 209.719 153.863 210.039C153.058 210.039 152.253 210.679 151.609 211.799C149.839 214.84 150.644 217.401 151.609 219.161C153.219 221.722 155.794 223.002 156.921 223.002H157.242C157.242 223.002 157.242 223.162 157.242 223.322L155.15 243.967C155.15 244.128 154.989 244.288 154.828 244.448L155.311 244.288ZM171.084 168.268C170.279 168.268 169.636 168.268 168.831 168.268C145.332 171.149 139.216 176.27 138.25 180.111C137.124 184.432 142.435 188.273 142.435 188.433C142.435 188.433 142.596 188.593 142.596 188.753C142.596 188.913 142.596 189.073 142.435 189.073C142.435 189.073 138.894 192.274 136.48 197.235C133.422 203.797 133.905 210.359 138.089 216.44L138.733 217.241C139.216 218.041 139.699 218.841 140.343 219.481C147.264 229.884 152.897 238.846 154.828 241.887L156.599 223.162C154.989 223.002 152.414 221.402 150.965 219.001C149.356 216.28 149.195 213.4 150.965 210.679C151.77 209.399 152.736 208.758 153.863 208.598C156.277 208.278 159.013 210.839 160.783 212.439C161.427 213.079 161.91 213.4 162.232 213.72C162.232 213.72 162.715 214.04 162.715 213.88C162.876 213.88 162.876 213.4 163.037 213.239C163.68 208.438 163.358 203.317 161.749 198.676C161.749 198.676 161.749 198.356 161.749 198.196C161.749 198.036 161.91 198.036 162.071 198.036C164.646 197.715 167.543 197.555 170.118 196.595C172.854 195.635 175.108 193.714 176.074 191.634C176.074 191.314 176.395 190.994 176.556 190.834C176.556 190.674 176.878 190.674 177.039 190.834C177.2 190.994 187.018 194.195 191.847 187.153C193.456 184.752 194.1 182.672 193.617 180.751C192.973 178.51 190.72 177.55 190.72 177.55C190.72 177.55 190.72 177.55 190.559 177.55C190.559 177.55 181.707 168.268 171.084 168.268Z" fill="#101720"/>
<path d="M177.041 191.794H176.88C176.719 191.794 176.558 191.314 176.719 191.154C178.489 187.953 178.489 185.872 178.489 185.872C178.489 185.552 178.65 185.392 178.972 185.392C179.294 185.392 179.455 185.552 179.455 185.872C179.455 186.192 179.455 188.273 177.685 191.634C177.685 191.794 177.363 191.954 177.202 191.954L177.041 191.794Z" fill="#101720"/>
<path d="M140.02 220.121C148.711 233.245 155.149 243.807 155.149 243.807L157.241 223.162C154.505 223.322 147.584 217.721 151.447 211.319C154.666 206.038 160.299 213.239 162.07 214.36C162.391 214.52 162.713 214.68 163.035 214.68C163.357 214.68 163.518 214.04 163.518 213.72C164.323 208.758 163.84 203.637 162.07 198.836C156.436 199.476 143.721 199.476 143.721 199.476C143.721 199.476 145.492 203.477 146.618 209.398C147.423 213.72 142.595 218.041 140.02 220.121Z" fill="#101720"/>
<path d="M155.313 244.288C155.152 244.288 154.991 244.288 154.83 244.127C154.83 244.127 148.231 233.405 139.701 220.441C139.701 220.281 139.701 219.961 139.701 219.801C141.954 218.041 146.944 213.72 146.139 209.558C145.012 203.797 143.242 199.796 143.242 199.796C143.242 199.796 143.242 199.476 143.242 199.316C143.242 199.156 143.403 199.156 143.564 199.156C143.564 199.156 156.44 199.156 161.912 198.516C162.073 198.516 162.395 198.516 162.395 198.836C164.005 203.637 164.487 208.918 163.844 213.88C163.844 214.2 163.683 215 163.039 215.16C162.556 215.32 161.912 215.16 161.59 214.84C161.268 214.68 160.625 214.04 159.981 213.4C158.371 211.959 155.796 209.559 153.865 209.879C153.06 209.879 152.255 210.519 151.611 211.639C149.841 214.68 150.646 217.24 151.611 219.001C153.221 221.562 155.796 222.842 156.923 222.842H157.245C157.245 222.842 157.245 223.002 157.245 223.162L155.152 243.807C155.152 243.967 154.991 244.127 154.83 244.288H155.313ZM140.667 220.281C147.427 230.524 152.899 239.326 154.83 242.367L156.601 223.642C154.991 223.482 152.416 221.882 150.968 219.481C149.358 216.76 149.197 213.88 150.968 211.159C151.772 209.879 152.738 209.238 153.865 209.078C156.279 208.758 159.015 211.319 160.786 212.919C161.429 213.56 161.912 213.88 162.234 214.2C162.234 214.2 162.717 214.52 162.717 214.36C162.878 214.36 162.878 213.88 163.039 213.72C163.683 208.918 163.361 204.117 161.751 199.476C156.762 199.956 147.105 200.116 144.369 200.116C144.852 201.556 146.139 204.917 147.105 209.398C147.91 213.72 143.564 217.881 140.667 220.281Z" fill="#101720"/>
<path d="M174.947 242.687C167.543 242.687 163.037 238.206 162.876 238.046C162.715 237.886 162.715 237.566 162.876 237.406C163.037 237.246 163.359 237.246 163.52 237.406C163.52 237.406 169.314 243.007 178.327 241.407C178.649 241.407 178.81 241.407 178.971 241.727C179.132 242.047 178.971 242.207 178.649 242.367C177.361 242.527 176.235 242.687 175.108 242.687H174.947Z" fill="#101720"/>
<path d="M158.852 216.76C158.691 216.76 158.53 216.76 158.369 216.6C157.082 214.36 155.472 213.719 154.829 213.399C154.185 213.239 153.541 213.399 153.058 213.559C152.897 213.559 152.575 213.559 152.414 213.559C152.253 213.559 152.414 213.079 152.414 212.919C153.058 212.599 154.024 212.439 154.829 212.599C156.438 212.919 157.887 214.2 159.013 216.12C159.013 216.28 159.013 216.6 158.852 216.76Z" fill="#101720"/>
<path d="M155.632 219.161C155.632 219.161 155.31 219.161 155.31 219.001C153.379 216.6 154.505 212.919 154.505 212.759C154.505 212.439 154.827 212.439 155.149 212.439C155.471 212.439 155.471 212.759 155.471 213.079C155.471 213.079 154.505 216.44 156.115 218.361C156.276 218.521 156.115 218.841 156.115 219.001C156.115 219.001 155.954 219.001 155.793 219.001L155.632 219.161Z" fill="#101720"/>
<path d="M196.838 174.349L191.044 177.23C192.975 176.27 194.907 175.31 196.838 174.349Z" fill="#F2CDAC"/>
<path d="M191.041 177.55C190.88 177.55 190.72 177.55 190.559 177.23C190.559 177.07 190.559 176.75 190.72 176.59C192.49 175.63 194.582 174.669 196.514 173.709C196.675 173.709 196.997 173.709 197.157 173.869C197.157 174.029 197.158 174.349 196.997 174.509L191.202 177.39C191.202 177.39 191.202 177.39 191.041 177.39V177.55Z" fill="#101720"/>
<path d="M189.11 190.673C189.27 190.353 192.65 185.872 193.455 182.031C193.938 179.791 192.007 177.87 189.753 178.03C188.305 178.19 186.534 178.67 185.086 179.471C184.764 179.471 184.442 179.791 184.12 179.791L183.315 180.111C181.545 180.911 180.257 181.711 179.935 181.871C158.368 193.234 134.065 207.158 134.065 207.158C134.065 207.158 124.086 186.032 137.284 173.069C146.941 163.626 161.748 159.945 171.566 160.746C175.268 161.066 178.326 162.026 179.935 163.466C183.154 166.187 187.339 171.629 190.558 176.27L192.329 175.47L196.352 173.549C201.825 170.988 206.975 169.068 209.872 169.868C221.46 173.229 189.753 190.193 188.788 190.513L189.11 190.673Z" fill="#F2CDAC"/>
<path d="M134.066 207.638C134.066 207.638 133.906 207.638 133.745 207.318C133.745 207.158 123.766 185.712 136.964 172.749C146.942 162.986 161.911 159.465 171.568 160.266C175.43 160.586 178.488 161.546 180.259 163.146C182.834 165.387 186.375 169.548 190.882 175.63L196.354 172.909C203.275 169.708 207.781 168.428 210.356 169.228C212.127 169.708 213.093 170.668 213.253 171.789C213.897 177.87 190.399 190.353 189.433 190.834C189.272 190.834 188.95 190.834 188.789 190.834C188.628 190.834 188.628 190.353 188.789 190.193C189.433 189.393 192.33 185.392 193.135 181.711C193.296 180.751 193.135 179.951 192.491 179.151C191.847 178.51 191.042 178.19 189.916 178.19C188.628 178.19 187.019 178.83 185.409 179.471C185.248 179.471 185.087 179.631 184.926 179.631L183.8 180.111C182.19 180.911 180.903 181.711 180.581 181.871C159.335 193.234 135.032 206.998 134.71 207.158H134.549L134.066 207.638ZM168.992 161.226C159.496 161.226 146.621 164.907 137.768 173.549C126.019 185.072 133.101 203.317 134.549 206.518C138.09 204.597 160.301 191.954 179.937 181.551C180.42 181.231 181.707 180.431 183.317 179.631L184.444 179.151C184.605 179.151 184.765 178.991 185.087 178.991C186.375 178.51 188.145 177.71 189.916 177.55C191.203 177.55 192.33 177.87 193.296 178.83C194.101 179.791 194.422 180.911 194.261 182.191C193.779 184.752 192.169 187.633 191.042 189.393C198.285 185.392 212.932 176.43 212.61 172.269C212.61 171.469 211.805 170.828 210.356 170.508C208.103 169.868 203.757 170.988 197.159 174.189L191.364 177.07C191.203 177.07 190.882 177.07 190.721 177.07C186.214 170.828 182.673 166.667 180.098 164.427C178.488 162.986 175.591 162.026 171.89 161.866C171.085 161.866 170.119 161.866 169.314 161.866L168.992 161.226Z" fill="#101720"/>
<path d="M180.741 182.031C180.58 182.031 180.419 182.031 180.259 181.711C180.259 181.551 180.259 181.231 180.42 181.071L190.398 175.95C190.559 175.95 190.881 175.95 191.042 176.11C191.042 176.27 191.042 176.59 190.881 176.75L180.902 181.871C180.902 181.871 180.902 181.871 180.741 181.871V182.031Z" fill="#101720"/>
<path d="M131.171 197.876C134.39 196.435 136.16 201.236 137.609 205.237L134.068 207.158C134.068 207.158 131.654 201.397 131.171 197.876Z" fill="#101720"/>
<path d="M134.067 207.638C134.067 207.638 134.067 207.638 133.906 207.638C133.906 207.638 133.745 207.638 133.584 207.318C133.584 207.158 131.17 201.556 130.687 197.875C130.687 197.715 130.687 197.395 131.009 197.395C131.814 197.075 132.78 197.075 133.423 197.395C135.677 198.356 136.964 202.037 138.091 205.077C138.091 205.237 138.091 205.557 137.93 205.717L134.389 207.638H134.228H134.067ZM131.814 198.196C132.297 201.076 133.906 205.077 134.389 206.518L137.125 204.917C136.16 202.357 134.872 198.996 133.101 198.196C132.619 198.036 132.136 198.036 131.653 198.196H131.814Z" fill="#101720"/>
<path d="M140.665 204.117C140.504 204.117 140.343 204.117 140.182 203.797C138.734 199.476 136.641 196.755 134.388 195.795C132.457 194.995 131.008 195.795 131.008 195.795C130.847 195.795 130.525 195.795 130.364 195.635C130.364 195.475 130.364 195.155 130.525 194.995C130.525 194.995 132.296 194.034 134.71 194.995C137.285 195.955 139.377 198.836 140.987 203.637C140.987 203.957 140.987 204.117 140.665 204.277C140.665 204.277 140.665 204.277 140.504 204.277L140.665 204.117Z" fill="#101720"/>
<path d="M192.49 175.47L184.282 179.631L183.477 179.951L171.567 160.746C175.268 161.066 178.327 162.026 179.936 163.467C183.155 166.187 187.34 171.629 190.559 176.27L192.329 175.47H192.49Z" fill="#F8F4F0"/>
<path d="M183.478 180.591C183.317 180.591 183.156 180.591 182.995 180.431L171.085 161.226C171.085 161.226 171.085 161.066 171.085 160.906C171.085 160.746 171.085 160.746 171.246 160.586C171.246 160.586 171.407 160.586 171.568 160.586C175.431 160.906 178.489 161.866 180.259 163.466C182.834 165.707 186.375 169.868 190.882 175.95L192.169 175.31C192.33 175.31 192.652 175.31 192.813 175.47C192.813 175.63 192.813 175.95 192.652 176.11L183.639 180.751C183.639 180.751 183.639 180.751 183.478 180.751V180.591ZM172.533 161.386L183.639 179.471L190.077 176.27C185.731 170.348 182.351 166.187 179.776 164.107C178.328 162.826 175.752 161.866 172.533 161.546V161.386Z" fill="#101720"/>
<path d="M162.554 191.794C162.393 191.794 162.232 191.794 162.071 191.634L147.264 166.027C147.264 165.867 147.264 165.547 147.425 165.387C147.586 165.227 147.907 165.387 148.068 165.547L162.876 191.154C162.876 191.314 162.876 191.634 162.715 191.794H162.554Z" fill="#101720"/>
<path d="M380.963 476.508C380.319 475.067 367.121 454.902 367.121 454.902L332.839 476.028L352.314 512.997L381.928 500.354L380.802 476.508H380.963Z" fill="#FF7E6E"/>
<path d="M352.315 513.317C352.154 513.317 351.993 513.317 351.832 512.997L332.357 476.028C332.357 475.868 332.357 475.548 332.518 475.388L366.8 454.262C366.961 454.262 367.283 454.262 367.444 454.262C367.927 455.062 380.642 474.587 381.286 476.028C381.286 476.028 381.286 476.028 381.286 476.188L382.412 500.034C382.412 500.194 382.412 500.354 382.091 500.514L352.476 513.157C352.476 513.157 352.476 513.157 352.315 513.157V513.317ZM333.484 476.028L352.637 512.197L381.608 499.874L380.481 476.508C379.676 474.907 370.824 461.144 366.961 455.382L333.484 476.028Z" fill="#101720"/>
<path d="M351.83 528.361C352.957 531.082 354.245 533.483 356.498 535.243C359.556 537.804 364.384 539.084 372.915 538.284C387.4 537.004 410.738 517.799 426.028 500.834C440.031 485.31 449.044 476.028 442.928 467.065C442.445 466.265 441.64 465.465 440.996 464.665C435.846 459.703 426.028 459.543 414.762 462.104C404.622 464.345 393.355 468.666 383.377 473.307C377.26 474.747 378.548 479.869 379.031 484.67C379.192 487.071 379.353 489.471 378.226 491.232C375.007 496.993 366.96 504.035 357.947 500.994C348.933 497.953 343.622 505.315 343.622 505.315C343.622 505.315 348.933 521.48 351.83 528.041V528.361Z" fill="#F8F4F0"/>
<path d="M368.247 539.084C362.935 539.084 358.912 537.964 356.176 535.723C353.761 533.803 352.474 531.082 351.347 528.681C348.611 522.12 343.3 505.955 343.139 505.795C343.139 505.795 343.139 505.475 343.139 505.315C343.139 505.315 348.772 497.793 357.946 500.834C366.798 503.715 374.846 496.513 377.743 491.232C378.708 489.471 378.547 487.071 378.387 484.83C378.387 484.35 378.387 483.87 378.387 483.39C377.904 478.908 377.421 474.267 383.215 472.827C394.321 467.545 405.426 463.544 414.6 461.624C427.476 458.743 436.328 459.703 441.157 464.345C441.961 465.145 442.766 465.945 443.249 466.745C449.526 475.548 441.318 484.51 427.798 499.554L426.349 501.154C410.737 518.279 387.4 537.324 372.914 538.764C371.144 538.924 369.695 538.924 368.086 538.924L368.247 539.084ZM352.313 528.201C353.278 530.602 354.566 533.163 356.819 534.923C360.038 537.644 365.189 538.444 372.914 537.804C387.239 536.523 410.255 517.639 425.706 500.514L427.154 498.914C440.352 484.35 448.399 475.548 442.605 467.385C442.122 466.585 441.479 465.945 440.674 465.145C436.167 460.664 427.476 459.864 414.922 462.744C405.909 464.665 394.803 468.666 383.859 473.947C378.708 475.228 379.03 479.069 379.674 483.55C379.674 484.03 379.674 484.51 379.674 484.99C379.835 487.231 379.996 489.791 378.869 491.872C373.075 502.435 363.257 503.555 357.946 501.954C350.06 499.394 345.231 504.835 344.426 505.955C345.07 508.036 349.899 522.28 352.474 528.521L352.313 528.201Z" fill="#101720"/>
<path d="M356.497 535.403C364.062 556.689 398.827 531.082 426.027 500.994C440.03 485.47 449.043 476.188 442.927 467.225C435.04 485.31 398.183 514.758 381.283 525.161C369.695 532.202 361.326 534.603 356.497 535.403Z" fill="#F2CDAC"/>
<path d="M367.12 543.565C366.155 543.565 365.35 543.565 364.545 543.245C360.521 542.445 357.785 539.884 356.176 535.403V535.083C356.176 535.083 356.337 534.923 356.498 534.923C361.326 534.123 369.696 531.882 381.123 524.84C398.505 514.118 434.88 484.99 442.606 467.225C442.606 467.065 442.766 466.905 442.927 466.905C443.088 466.905 443.249 466.905 443.41 467.065C449.687 475.868 441.479 484.83 427.959 499.874L426.511 501.474C408.323 521.48 382.571 543.885 367.12 543.885V543.565ZM357.141 535.723C358.59 539.564 361.165 541.805 364.545 542.445C373.558 544.205 394.965 534.283 425.545 500.674L426.993 499.074C439.869 484.99 447.756 476.188 442.927 468.186C434.397 486.27 398.666 514.918 381.445 525.481C370.339 532.362 362.131 534.763 357.141 535.723Z" fill="#101720"/>
<path d="M379.03 484.99C408.966 474.587 415.082 468.186 414.76 462.424C404.62 464.665 393.354 468.986 383.375 473.627C377.259 475.067 378.547 480.189 379.03 484.99Z" fill="#F2CDAC"/>
<path d="M379.03 485.31C379.03 485.31 378.869 485.31 378.708 485.31C378.708 485.31 378.547 485.15 378.547 484.99C378.547 484.51 378.547 484.03 378.547 483.55C378.064 479.069 377.581 474.427 383.376 472.987C394.481 467.706 405.587 463.705 414.761 461.784C414.761 461.784 414.922 461.784 415.083 461.784C415.244 461.784 415.404 461.944 415.404 462.264C415.726 469.786 405.426 476.348 379.352 485.31C379.352 485.31 379.352 485.31 379.191 485.31H379.03ZM414.278 462.904C405.265 464.985 394.481 468.826 383.698 473.947C378.547 475.228 378.869 479.069 379.513 483.55C379.513 483.87 379.513 484.03 379.513 484.35C409.449 473.947 414.278 467.706 414.278 462.904Z" fill="#101720"/>
<path d="M352.151 522.12C351.025 522.12 350.059 522.12 349.093 521.8C348.771 521.8 348.61 521.48 348.771 521.159C348.932 520.839 349.093 520.679 349.415 520.839C359.233 522.76 378.064 513.637 386.755 506.436C387.721 505.635 388.687 504.995 389.652 504.195C398.183 497.473 407.679 489.951 400.919 476.188C400.919 476.028 400.919 475.708 401.08 475.548C401.241 475.548 401.563 475.548 401.724 475.708C408.966 490.111 398.505 498.273 390.296 504.835C389.331 505.635 388.365 506.436 387.399 507.076C379.352 513.637 362.774 521.96 352.312 521.96L352.151 522.12Z" fill="#101720"/>
<path d="M235.464 442.259L279.886 426.735L327.366 498.914L383.698 460.184C383.698 460.184 340.725 365.119 322.859 353.756C304.994 342.393 232.567 367.359 232.567 367.359L235.303 442.099L235.464 442.259Z" fill="#82C9D7"/>
<mask id="mask2_182_285" style="mask-type:luminance" maskUnits="userSpaceOnUse" x="232" y="350" width="152" height="149">
<path d="M235.464 442.259L279.886 426.735L327.366 498.914L383.698 460.184C383.698 460.184 340.724 365.119 322.859 353.756C304.994 342.393 232.567 367.359 232.567 367.359L235.303 442.099L235.464 442.259Z" fill="white"/>
</mask>
<g mask="url(#mask2_182_285)">
<path d="M238.524 369.44C253.17 385.444 257.194 413.131 267.656 414.252C278.117 415.372 302.743 402.248 301.133 411.051C299.524 419.853 300.811 436.497 313.687 454.902C326.563 473.147 349.418 484.03 364.547 473.787C379.515 463.384 369.215 489.311 369.215 489.311L333.001 508.516L294.373 516.518L225.97 456.823L238.685 369.6L238.524 369.44Z" fill="#008FB1"/>
<path d="M234.982 358.557C248.663 378.242 255.584 426.575 257.998 440.658C260.412 454.742 221.302 457.463 221.302 457.463L234.982 358.557Z" fill="#101720"/>
</g>
<path d="M327.527 499.394C327.527 499.394 327.366 499.394 327.205 499.234L279.886 427.375L235.786 442.739C235.786 442.739 235.464 442.739 235.303 442.739C235.303 442.739 235.142 442.579 235.142 442.419L232.406 367.68C232.406 367.52 232.406 367.359 232.728 367.199C232.889 367.199 251.076 360.798 271.195 355.997C298.395 349.595 315.939 348.635 323.343 353.436C330.746 358.237 343.461 377.602 360.683 411.051C373.559 435.857 384.342 459.703 384.342 460.024C384.342 460.184 384.342 460.504 384.181 460.664L327.849 499.394C327.849 499.394 327.688 499.394 327.527 499.394ZM279.886 426.255C280.047 426.255 280.208 426.255 280.208 426.415L327.527 498.274L383.216 460.024C380.319 453.622 339.759 365.119 322.699 354.236C305.799 343.513 238.522 366.079 233.211 367.84L235.947 441.619L279.725 426.415C279.725 426.415 279.725 426.415 279.886 426.415V426.255Z" fill="#101720"/>
<path d="M247.053 396.647C247.053 447.22 234.016 475.228 192.17 516.838C150.323 558.449 86.5869 591.418 86.5869 591.418C86.5869 591.418 91.0935 580.215 86.5869 557.009C82.0803 533.803 43.4525 489.311 29.45 493.952C29.45 493.952 88.5183 458.263 107.51 444.66C107.51 444.66 79.1833 416.972 90.4497 396.487H247.053V396.647Z" fill="#82C9D7"/>
<mask id="mask3_182_285" style="mask-type:luminance" maskUnits="userSpaceOnUse" x="29" y="396" width="219" height="196">
<path d="M247.052 396.647C247.052 447.22 234.015 475.228 192.168 516.838C150.321 558.449 86.5855 591.418 86.5855 591.418C86.5855 591.418 91.092 580.215 86.5855 557.009C82.0789 533.803 43.4511 489.311 29.4485 493.952C29.4485 493.952 88.5169 458.263 107.509 444.66C107.509 444.66 79.1818 416.972 90.4482 396.487H247.052V396.647Z" fill="white"/>
</mask>
<g mask="url(#mask3_182_285)">
<path d="M141.631 387.525C125.697 402.569 142.114 416.332 138.251 431.856C134.388 447.38 78.056 481.949 74.676 496.993C71.2961 511.877 116.201 543.405 116.201 574.453C116.201 605.501 92.8633 611.103 92.8633 611.103L28.9665 557.329L0.317505 479.869L83.2064 381.283L141.631 387.525Z" fill="#008FB1"/>
</g>
<path d="M86.5866 591.898C86.5866 591.898 86.4257 591.898 86.2647 591.898C86.2647 591.898 86.1038 591.578 86.2647 591.418C86.2647 591.418 90.6104 580.055 86.2647 557.329C82.5629 538.284 56.972 506.916 40.5551 497.313C35.8876 494.593 32.3467 493.792 29.6106 494.593C29.4496 494.593 29.1277 494.593 28.9668 494.272C28.9668 494.112 28.9668 493.792 29.1278 493.632C29.7716 493.312 87.3914 458.423 106.705 444.82C103.325 441.299 79.3439 415.692 89.9665 396.487C89.9665 396.327 90.2885 396.167 90.4494 396.167H247.053C247.375 396.167 247.536 396.327 247.536 396.647C247.536 447.06 234.821 475.228 192.491 517.319C150.162 559.409 87.3914 591.578 86.7476 591.898C86.7476 591.898 86.7476 591.898 86.5866 591.898ZM31.7029 493.152C34.2781 493.152 37.3362 494.273 40.877 496.353C57.4548 505.956 83.3676 537.644 87.0695 557.009C90.7713 576.214 88.3571 587.097 87.3914 590.457C95.9217 585.976 153.541 554.768 191.847 516.518C233.855 474.747 246.57 446.9 246.57 397.127H90.6103C79.9877 417.132 107.51 444.179 107.671 444.5C107.671 444.5 107.832 444.66 107.671 444.82C107.671 444.82 107.671 445.14 107.51 445.14C90.6103 457.143 42.0037 486.751 31.381 493.152H31.7029Z" fill="#101720"/>
<path d="M86.5873 591.418C85.6216 590.938 54.7193 576.854 40.7167 547.406C26.3923 517.478 29.4503 493.952 29.4503 493.952C43.4529 489.311 82.2416 533.803 86.5873 557.009C91.0938 580.215 86.5873 591.418 86.5873 591.418Z" fill="#101720"/>
<path d="M86.5873 591.898C86.5873 591.898 86.4264 591.898 86.2654 591.898C84.3341 590.938 54.2365 577.014 40.073 547.726C25.9095 517.959 28.8066 494.272 28.8066 494.112C28.8066 493.952 28.8066 493.792 29.1285 493.792C32.0256 492.832 35.8883 493.792 40.8778 496.513C57.4555 506.116 83.3684 537.804 87.0702 557.169C91.5768 580.215 87.0702 591.418 87.0702 591.738C87.0702 591.738 86.9092 592.058 86.7483 592.058L86.5873 591.898ZM29.9332 494.432C29.6113 497.313 28.0018 519.559 41.1997 547.246C54.5584 575.093 82.4027 588.857 86.4264 590.778C87.2311 588.377 90.1282 577.174 86.2654 557.169C82.5636 538.124 56.9727 506.756 40.5559 497.153C36.0493 494.593 32.5084 493.632 29.9332 494.272V494.432Z" fill="#101720"/>
<path d="M90.448 397.127C90.448 397.127 90.448 397.127 90.2871 397.127C89.9652 397.127 89.9652 396.647 90.1261 396.487C90.1261 396.487 90.1261 396.167 90.9308 395.047C91.5746 393.926 92.0575 392.966 92.5403 392.166L93.1841 390.886C93.1841 390.726 93.667 390.566 93.8279 390.726C94.1498 390.726 94.1498 391.206 93.9889 391.366L93.3451 392.646C92.8622 393.446 92.3794 394.407 91.7356 395.527C91.0918 396.807 90.9308 396.967 90.9308 396.967C90.9308 397.127 90.609 397.287 90.448 397.287V397.127Z" fill="#101720"/>
<path d="M90.448 397.127C90.448 397.127 90.448 397.127 90.2871 397.127C89.9652 397.127 89.9652 396.647 90.1261 396.487C90.1261 396.487 90.1261 396.167 90.9308 395.047C91.5746 393.926 92.0575 392.966 92.5403 392.166C92.8622 391.686 93.0232 391.206 93.1841 390.886L93.667 389.925C93.667 389.925 93.667 389.925 93.667 389.765C93.667 389.765 93.667 389.605 93.8279 389.445C93.8279 389.285 93.8279 389.125 93.9889 389.125C93.9889 389.125 93.9889 388.965 94.1498 388.805C94.1498 388.805 94.1498 388.805 94.1498 388.645C94.1498 388.485 94.3108 388.325 94.4717 388.165V388.005C94.6327 387.845 94.9546 387.845 95.1155 388.005C95.2765 388.165 95.2765 388.485 95.1155 388.645C95.1155 388.645 95.1155 388.805 95.1155 388.965C95.1155 388.965 95.1155 388.965 95.1155 389.125C95.1155 389.125 95.1155 389.285 95.1155 389.445C95.1155 389.445 95.1155 389.765 94.7936 389.925C94.7936 390.085 94.6327 390.245 94.4717 390.565C94.4717 390.565 94.4717 390.565 94.4717 390.726L93.8279 391.846C93.667 392.166 93.3451 392.646 93.1841 393.126C92.7013 393.926 92.2184 394.887 91.5746 396.007C90.9309 397.287 90.7699 397.447 90.7699 397.447C90.7699 397.607 90.448 397.767 90.2871 397.767L90.448 397.127Z" fill="#101720"/>
<path d="M23.0107 362.558C84.8152 288.779 107.992 257.411 156.76 250.689C205.527 243.967 267.493 280.297 267.493 280.297L310.788 218.841C310.788 218.841 336.54 225.563 351.83 236.765C351.83 236.765 319.318 310.545 292.279 332.951C265.239 355.356 237.234 337.912 237.234 337.912L247.213 396.647H90.6094L95.4379 358.877L61.7995 400.008L23.1717 362.558H23.0107Z" fill="#F8F4F0"/>
<mask id="mask4_182_285" style="mask-type:luminance" maskUnits="userSpaceOnUse" x="23" y="218" width="329" height="183">
<path d="M23.0107 362.558C84.8152 288.779 107.992 257.411 156.76 250.689C205.527 243.967 267.493 280.297 267.493 280.297L310.788 218.841C310.788 218.841 336.54 225.563 351.83 236.765C351.83 236.765 319.318 310.545 292.279 332.951C265.239 355.356 237.234 337.912 237.234 337.912L247.213 396.647H90.6094L95.4379 358.877L61.7995 400.008L23.1717 362.558H23.0107Z" fill="white"/>
</mask>
<g mask="url(#mask4_182_285)">
<path d="M26.7108 381.283C26.7108 381.283 98.4942 283.498 119.579 268.774C140.663 254.21 197.8 259.652 225.483 271.175C253.166 282.698 259.122 285.098 258.961 287.819C258.8 290.54 256.385 296.461 256.385 296.461C256.385 296.461 262.501 298.062 268.778 290.7C275.055 283.498 316.58 216.76 316.58 216.76L257.029 202.997L63.7291 246.048L-14.4922 341.913L26.8718 380.963L26.7108 381.283Z" fill="#8FDCE8"/>
</g>
<path d="M61.6369 400.488H61.3151L22.6872 363.038C22.5263 362.878 22.5263 362.558 22.6872 362.398C26.8719 357.437 30.7347 352.796 34.5975 348.154C87.0669 285.418 111.048 256.611 156.758 250.369C182.188 246.848 210.998 255.17 230.634 262.692C250.108 270.214 264.755 278.376 267.33 279.817L310.303 218.681C310.303 218.521 310.625 218.521 310.786 218.521C311.108 218.521 336.86 225.403 351.989 236.445C352.15 236.445 352.15 236.766 352.15 237.086C352.15 237.246 343.942 255.81 332.514 276.776C322.053 296.141 306.441 321.748 292.438 333.431C268.135 353.436 242.705 341.753 237.715 339.032L247.533 396.807V397.127C247.533 397.127 247.372 397.287 247.211 397.287H90.6078C90.6078 397.287 90.2859 397.287 90.2859 397.127C90.2859 397.127 90.2859 396.967 90.2859 396.807L94.7925 360.638L62.2807 400.488C62.2807 400.488 62.1198 400.648 61.9588 400.648L61.6369 400.488ZM23.6529 362.558L61.6369 399.368L94.9534 358.557C94.9534 358.397 95.2753 358.397 95.4363 358.557C95.5972 358.557 95.7582 358.877 95.7582 359.037L91.0907 396.327H246.729L236.911 338.232C236.911 338.072 236.911 337.912 237.072 337.752C237.233 337.592 237.393 337.752 237.554 337.752C237.876 337.912 265.721 354.556 292.116 332.79C317.707 311.505 348.931 242.687 351.346 237.086C337.182 226.843 314.166 220.441 311.108 219.641L267.974 280.777C267.974 280.937 267.491 281.097 267.33 280.777C267.169 280.777 251.557 271.655 230.312 263.492C210.676 255.97 182.027 247.808 156.919 251.169C111.531 257.411 89.1593 284.138 35.2413 348.635C31.5394 353.116 27.6767 357.757 23.6529 362.558Z" fill="#101720"/>
<path d="M310.787 218.841C316.742 209.559 313.201 198.196 324.79 198.676C324.79 198.676 328.974 191.954 332.676 189.873C336.378 187.793 339.919 189.393 340.563 192.914C340.563 192.914 344.265 191.154 347.162 193.234C350.059 195.315 349.898 197.715 349.898 197.715C349.898 197.715 354.887 197.235 356.98 200.436C359.072 203.637 357.784 205.557 357.784 205.557C357.784 205.557 364.222 205.237 364.061 211.799C363.739 218.361 351.829 236.766 351.829 236.766L310.787 218.841Z" fill="#FF7E6D"/>
<mask id="mask5_182_285" style="mask-type:luminance" maskUnits="userSpaceOnUse" x="310" y="188" width="55" height="49">
<path d="M310.787 218.841C316.742 209.559 313.201 198.196 324.79 198.676C324.79 198.676 328.974 191.954 332.676 189.873C336.378 187.793 339.919 189.393 340.563 192.914C340.563 192.914 344.265 191.154 347.162 193.234C350.059 195.315 349.898 197.715 349.898 197.715C349.898 197.715 354.887 197.235 356.98 200.436C359.072 203.637 357.784 205.557 357.784 205.557C357.784 205.557 364.222 205.237 364.061 211.959C363.739 218.521 351.829 236.926 351.829 236.926L310.787 219.001V218.841Z" fill="white"/>
</mask>
<g mask="url(#mask5_182_285)">
<path d="M325.915 197.075C325.915 197.075 317.546 208.758 319.316 212.919C320.926 217.08 356.013 235.805 356.013 235.805L352.794 240.446L306.762 218.841L309.338 203.157L317.707 194.995L325.915 197.075Z" fill="#008FB1"/>
<path d="M333.48 188.433C337.343 188.433 337.987 190.994 337.665 192.594C337.343 194.194 336.056 197.075 336.699 197.555C337.343 198.035 338.631 195.795 339.275 194.675C339.918 193.554 341.367 190.834 341.367 190.834L340.401 187.153L335.251 186.512L333.48 188.273V188.433Z" fill="#008FB1"/>
<path d="M345.391 192.594C347.162 193.234 348.127 195.955 347.645 197.555C347.162 199.156 346.196 201.556 347.001 202.197C347.805 202.837 349.898 198.356 350.703 196.435C351.507 194.515 349.898 191.634 349.898 191.634L347.001 190.354L345.23 192.754L345.391 192.594Z" fill="#008FB1"/>
<path d="M354.242 198.356C356.334 200.116 356.495 203.797 355.852 204.917C355.208 206.038 353.759 210.039 354.725 210.519C355.691 210.999 357.3 206.358 357.3 206.358L359.071 202.677L357.783 197.075L354.242 198.195" fill="#008FB1"/>
<path d="M359.715 205.878C361.646 207.958 361.646 209.238 361.324 213.399C361.002 217.561 358.588 222.842 361.002 223.642C363.417 224.442 367.923 212.599 367.923 212.599L364.865 204.277L359.715 205.878Z" fill="#008FB1"/>
</g>
<path d="M318.03 209.558C318.03 209.558 317.869 209.558 317.708 209.558C317.547 209.558 317.386 209.078 317.708 208.918L324.468 198.516C324.468 198.356 324.951 198.196 325.112 198.516C325.273 198.516 325.434 198.996 325.112 199.156L318.352 209.558C318.352 209.558 318.191 209.719 318.03 209.719V209.558Z" fill="#101720"/>
<path d="M338.149 197.555H337.988C337.828 197.555 337.667 197.075 337.828 196.915L340.242 192.754C340.242 192.594 340.725 192.434 340.886 192.594C341.047 192.594 341.207 193.074 341.047 193.234L338.632 197.395C338.632 197.555 338.31 197.555 338.149 197.555Z" fill="#101720"/>
<path d="M347.968 201.876C347.968 201.876 347.968 201.876 347.807 201.876C347.646 201.876 347.485 201.396 347.646 201.236L349.577 197.395C349.577 197.235 350.06 197.075 350.221 197.235C350.382 197.235 350.543 197.715 350.382 197.875L348.451 201.716C348.451 201.876 348.129 202.036 347.968 202.036V201.876Z" fill="#101720"/>
<path d="M355.853 210.039C355.853 210.039 355.853 210.039 355.692 210.039C355.532 210.039 355.371 209.718 355.532 209.398L357.463 205.237C357.463 205.077 357.785 204.917 358.107 205.077C358.429 205.237 358.429 205.397 358.268 205.717L356.336 209.879C356.336 210.039 356.014 210.199 355.853 210.199V210.039Z" fill="#101720"/>
<path d="M312.719 215.16C328.652 223.322 351.829 236.766 351.829 236.766L310.787 218.841L312.719 215V215.16Z" fill="#101720"/>
<path d="M351.831 237.246C351.831 237.246 351.831 237.246 351.67 237.246L310.628 219.321C310.628 219.321 310.467 219.161 310.306 219.001V218.681L312.237 214.84C312.237 214.84 312.398 214.68 312.559 214.68H312.881C328.654 222.842 351.67 236.126 351.991 236.286C352.152 236.286 352.313 236.606 352.152 236.926C352.152 237.086 351.831 237.246 351.67 237.246H351.831ZM311.432 218.681L343.944 232.925C335.897 228.283 323.021 221.082 312.881 215.8L311.432 218.681Z" fill="#101720"/>
<path d="M351.831 237.246C351.831 237.246 351.831 237.246 351.67 237.246L310.628 219.321C310.628 219.321 310.467 219.161 310.306 219.001V218.681C312.398 215.48 313.364 211.959 314.168 208.758C315.617 202.997 316.905 198.196 324.469 198.196C325.274 196.915 328.976 191.314 332.356 189.393C334.287 188.273 336.379 188.113 337.989 188.913C339.277 189.553 340.242 190.674 340.725 192.274C341.852 191.794 344.91 190.994 347.324 192.754C349.577 194.355 350.221 196.275 350.221 197.235C351.67 197.235 355.371 197.395 357.303 200.276C358.751 202.517 358.751 204.277 358.429 205.237C359.395 205.237 361.327 205.718 362.775 206.998C363.902 208.118 364.546 209.879 364.385 211.959C364.063 218.521 352.635 236.446 352.152 237.086C352.152 237.086 351.991 237.246 351.831 237.246ZM311.593 218.681L351.67 236.125C353.279 233.565 363.258 217.721 363.58 211.799C363.58 210.039 363.258 208.598 362.131 207.638C360.522 206.038 357.786 206.038 357.786 206.038C357.625 206.038 357.464 206.038 357.303 205.878C357.303 205.718 357.303 205.558 357.303 205.398C357.303 205.398 358.269 203.637 356.498 200.756C354.567 197.876 349.899 198.196 349.899 198.196H349.577C349.577 198.196 349.416 198.036 349.577 197.876C349.577 197.876 349.577 195.635 347.002 193.714C344.427 191.794 340.886 193.394 340.886 193.554C340.886 193.554 340.564 193.554 340.403 193.554C340.403 193.554 340.242 193.394 340.081 193.234C339.759 191.794 338.955 190.674 337.667 190.034C336.218 189.393 334.609 189.553 332.839 190.514C329.298 192.434 325.113 199.156 325.113 199.156C325.113 199.156 324.952 199.316 324.63 199.316C317.548 198.996 316.583 203.317 314.973 209.078C314.168 212.119 313.364 215.64 311.271 218.841L311.593 218.681Z" fill="#101720"/>
<path d="M238.522 345.914L216.955 323.348C222.427 328.789 229.187 333.751 237.235 337.912L238.522 345.914Z" fill="#101720"/>
<path d="M238.521 346.394H238.199L216.631 323.828C216.471 323.668 216.471 323.348 216.631 323.188C216.792 323.028 217.114 323.028 217.275 323.188C222.748 328.629 229.668 333.751 237.394 337.752C237.394 337.752 237.555 337.912 237.716 338.072L239.003 346.074C239.003 346.234 239.003 346.554 238.681 346.554C238.681 346.554 238.681 346.554 238.521 346.554V346.394ZM224.357 330.55L237.716 344.474L236.75 338.232C232.404 335.991 228.22 333.271 224.518 330.55H224.357Z" fill="#101720"/>
<path d="M216.794 323.828C216.794 323.828 216.634 323.828 216.473 323.828C215.829 323.188 215.185 322.548 214.541 321.908L214.219 321.588C206.977 313.586 202.953 304.783 202.792 296.941C202.792 296.621 202.953 296.461 203.275 296.461C203.597 296.461 203.758 296.621 203.758 296.941C203.758 304.783 207.942 313.425 215.185 321.428L217.116 323.348C217.277 323.508 217.277 323.828 217.116 323.988C216.955 324.148 216.955 323.988 216.794 323.988V323.828Z" fill="#101720"/>
<path d="M101.072 322.548L86.5869 369.44L95.2782 358.877C101.233 319.187 107.51 286.218 107.51 286.218" fill="#101720"/>
<path d="M86.5864 369.76C86.5864 369.76 86.5864 369.76 86.4254 369.76C86.2645 369.76 86.1035 369.44 86.1035 369.12L100.589 322.228C104.13 300.942 107.027 286.218 107.027 286.058C107.027 285.738 107.349 285.578 107.671 285.738C107.993 285.738 108.154 286.058 107.993 286.378C107.993 286.699 101.555 319.827 95.7605 358.877V359.037L87.0692 369.6C87.0692 369.6 86.9083 369.76 86.7473 369.76H86.5864ZM99.3014 329.59L87.713 367.2L94.6338 358.717C96.0824 348.475 97.6919 338.552 99.1404 329.75L99.3014 329.59Z" fill="#101720"/>
<path d="M61.6387 400.008C61.6387 400.008 47.958 420.973 43.1295 422.414C38.301 424.014 37.6572 412.011 37.6572 412.011C37.6572 412.011 18.9871 435.697 15.1243 437.938C11.2615 440.178 6.91592 435.537 7.88161 432.016C7.88161 432.016 1.2827 438.738 -2.25818 435.697C-5.79907 432.656 -3.06293 425.615 -3.06293 425.615C-3.06293 425.615 -9.01805 430.736 -12.237 427.375C-15.456 424.014 -12.7199 418.573 -12.7199 418.573C-12.7199 418.573 -17.8703 419.533 -18.836 414.092C-19.8016 408.65 -1.93629 392.646 23.1718 362.718L61.7996 400.168L61.6387 400.008Z" fill="#FF7E6D"/>
<mask id="mask6_182_285" style="mask-type:luminance" maskUnits="userSpaceOnUse" x="-19" y="362" width="81" height="77">
<path d="M61.6409 400.008C61.6409 400.008 47.9602 420.973 43.1317 422.414C38.3032 424.014 37.6594 412.011 37.6594 412.011C37.6594 412.011 18.9893 435.697 15.1265 437.938C11.2637 440.178 6.91812 435.537 7.88381 432.016C7.88381 432.016 1.2849 438.738 -2.25599 435.697C-5.79687 432.656 -3.06073 425.615 -3.06073 425.615C-3.06073 425.615 -9.01585 430.736 -12.2348 427.375C-15.4538 424.014 -12.7177 418.573 -12.7177 418.573C-12.7177 418.573 -17.8681 419.533 -18.8338 414.092C-19.7994 408.65 -1.93409 392.646 23.174 362.718L61.8018 400.168L61.6409 400.008Z" fill="white"/>
</mask>
<g mask="url(#mask6_182_285)">
<path d="M13.678 371.2C23.4959 369.12 36.5328 379.843 42.4879 389.125C48.4431 398.408 41.8441 406.89 36.8547 404.329C31.8653 401.768 26.554 397.447 26.8759 400.168C27.1978 402.729 32.0262 411.851 31.0605 414.732C30.0948 417.613 13.0342 437.938 9.49335 436.978C6.11341 436.017 11.4247 444.339 11.4247 444.339L45.8679 438.578L59.2267 419.053L64.8599 393.766L50.2135 373.441L21.5645 357.597L13.9999 371.04L13.678 371.2Z" fill="#008FB1"/>
<path d="M20.4369 415.532C20.4369 415.532 22.5292 412.811 20.7588 412.171C18.9883 411.531 9.97517 424.494 6.27334 428.815C2.57151 433.137 -3.54456 435.857 -6.6026 434.577C-9.49968 433.457 0.640117 439.538 0.640117 439.538L7.07809 433.137L20.2759 415.532" fill="#008FB1"/>
<path d="M10.6184 407.69C11.1013 406.09 11.2622 404.649 10.1356 404.489C9.00895 404.329 2.57098 414.252 -0.969905 418.413C-4.51079 422.574 -9.66116 427.375 -12.2364 425.455C-14.6506 423.534 -14.1677 430.416 -14.1677 430.416L-9.66116 432.016L-3.70604 426.415L10.6184 407.85" fill="#008FB1"/>
<path d="M2.57243 399.688C3.37718 398.247 2.25053 397.767 1.44578 398.087C0.641035 398.408 -8.37212 409.45 -12.5568 412.811C-16.7415 416.172 -18.8338 416.972 -20.6043 415.532C-22.3747 414.092 -19.1557 420.493 -19.1557 420.493H-15.4539L-13.5225 418.733L2.57243 399.688Z" fill="#008FB1"/>
</g>
<path d="M12.8712 438.898C11.7446 438.898 10.6179 438.578 9.65225 437.778C8.20371 436.658 7.23801 434.897 7.07707 433.137C4.98473 434.897 0.3172 438.418 -2.74084 435.857C-5.47697 433.457 -4.83318 428.976 -4.18938 426.575C-6.12077 428.015 -10.3054 430.096 -12.8806 427.375C-15.6168 424.494 -14.4901 420.493 -13.8463 418.893C-14.6511 418.893 -16.0996 418.893 -17.3872 417.933C-18.6748 417.132 -19.3186 415.692 -19.6405 413.932C-20.2843 410.251 -13.6854 403.049 -1.77514 389.925C4.98472 382.563 13.1931 373.281 22.5282 362.238C22.5282 362.238 22.6891 362.078 22.8501 362.078H23.172L61.7998 399.528C61.7998 399.688 61.9607 400.008 61.7998 400.168C61.3169 400.968 47.9582 421.294 42.9687 422.894C42.003 423.214 41.1983 423.054 40.3936 422.574C37.9793 420.973 37.3355 415.692 37.0136 413.291C33.4727 417.773 18.6654 436.337 15.1245 438.258C14.3198 438.738 13.515 438.898 12.7103 438.898H12.8712ZM7.88181 431.376C7.88181 431.376 7.88182 431.376 8.20372 431.376C8.36467 431.376 8.52561 431.696 8.36466 431.856C7.88182 433.457 8.68656 435.537 10.296 436.818C11.7446 437.938 13.3541 438.098 14.8026 437.298C18.5045 435.057 37.0136 411.851 37.1746 411.531C37.1746 411.371 37.4965 411.371 37.6574 411.371C37.8184 411.371 37.9793 411.531 37.9793 411.851C37.9793 414.092 38.7841 420.013 41.0373 421.614C41.5202 421.934 42.164 422.094 42.8078 421.774C46.5096 420.653 56.1666 407.05 60.8341 399.848L22.8501 363.038C13.676 373.921 5.46758 383.044 -1.13134 390.405C-12.0759 402.409 -19.3186 410.411 -18.6748 413.611C-18.3529 415.052 -17.7091 416.172 -16.7434 416.972C-15.1339 418.093 -13.0416 417.773 -13.0416 417.773C-12.8806 417.773 -12.7197 417.773 -12.5587 417.933C-12.3978 418.093 -12.5587 418.253 -12.5587 418.413C-12.5587 418.413 -14.973 423.534 -12.0759 426.575C-9.1788 429.616 -3.54558 424.814 -3.54558 424.814C-3.54558 424.814 -3.22368 424.654 -2.90178 424.814C-2.74083 424.814 -2.57989 425.134 -2.74084 425.455C-2.74084 425.455 -5.15507 432.336 -2.09704 435.057C0.960999 437.778 7.23801 431.536 7.23801 431.536C7.23801 431.536 7.39897 431.536 7.55992 431.536L7.88181 431.376Z" fill="#101720"/>
<path d="M-12.8809 418.893C-12.8809 418.893 -13.0419 418.893 -13.2028 418.893C-13.3638 418.733 -13.5247 418.413 -13.2028 418.253L2.73115 399.048C2.8921 398.888 3.214 398.888 3.37495 399.048C3.5359 399.208 3.69685 399.528 3.37495 399.688L-12.559 418.893L-12.8809 419.053V418.893Z" fill="#101720"/>
<path d="M-3.06232 425.775C-3.06232 425.775 -3.22327 425.775 -3.38422 425.775C-3.54517 425.615 -3.70612 425.294 -3.38422 425.134L10.9403 406.73C10.9403 406.57 11.4231 406.57 11.5841 406.73C11.745 406.89 11.906 407.21 11.5841 407.37L-2.74042 425.775L-3.06232 425.935V425.775Z" fill="#101720"/>
<path d="M7.88067 432.336C7.88067 432.336 7.71972 432.336 7.55877 432.336C7.39782 432.176 7.23687 431.856 7.55877 431.696L21.0785 414.252C21.0785 414.092 21.5613 413.932 21.7223 414.252C21.8832 414.412 22.0442 414.732 21.7223 414.892L8.20257 432.336L7.88067 432.496V432.336Z" fill="#101720"/>
<path d="M37.6566 412.491C37.6566 412.491 37.4956 412.491 37.3347 412.491L20.9178 398.088C20.7569 397.927 20.7569 397.607 20.9178 397.447C21.0788 397.287 21.4007 397.287 21.5616 397.447L37.9785 411.851C38.1394 412.011 38.1394 412.331 37.9785 412.491C37.9785 412.491 37.8175 412.651 37.6566 412.651V412.491Z" fill="#101720"/>
<path d="M19.6318 366.399L61.6396 400.008L23.0118 362.558L19.6318 366.399Z" fill="#101720"/>
<path d="M61.6373 400.488C61.6373 400.488 61.4763 400.488 61.3154 400.488L19.4686 366.879C19.4686 366.879 19.4686 366.719 19.3076 366.559C19.1467 366.399 19.3076 366.239 19.3076 366.239L22.5266 362.398C22.5266 362.398 22.6876 362.238 22.8485 362.238H23.1704L61.7982 399.688C61.9592 399.848 61.9592 400.168 61.7982 400.328C61.7982 400.328 61.6373 400.488 61.4763 400.488H61.6373ZM20.4343 366.399L53.9117 393.286L23.0095 363.358L20.4343 366.399Z" fill="#101720"/>
<path d="M49.2443 518.759C51.1757 520.519 53.429 522.76 55.6822 525.321C64.5344 535.083 71.9381 547.406 76.7666 559.409L58.0965 572.213L49.0833 578.294L29.1256 557.329L28.8037 530.762L30.0913 529.962L49.2443 518.599V518.759Z" fill="#FF7E6E"/>
<path d="M49.2451 578.774H48.9232L28.9654 557.809C28.9654 557.809 28.9654 557.649 28.9654 557.489L28.6436 530.922C28.6436 530.762 28.6435 530.602 28.9654 530.442L49.406 518.439C49.567 518.439 49.8889 518.439 50.0498 518.439C51.9812 520.359 54.2345 522.44 56.4878 525C64.8571 534.123 72.4217 546.286 77.7331 559.249C77.7331 559.409 77.7331 559.729 77.5721 559.889L50.0498 578.934C50.0498 578.934 49.8888 578.934 49.7279 578.934L49.2451 578.774ZM29.6092 557.009L49.2451 577.654L76.1236 559.089C70.8122 546.446 63.4086 534.443 55.2002 525.481C53.1078 523.08 51.0155 520.999 49.0841 519.239L29.1264 531.082L29.4483 557.169L29.6092 557.009Z" fill="#101720"/>
<path d="M36.8514 539.884C35.2419 547.086 30.5743 559.089 40.8751 564.211C46.0255 566.771 50.5321 568.372 54.2339 570.452C58.0967 572.533 61.1547 574.933 63.408 578.935C65.6613 583.096 67.5927 601.18 67.4317 620.385C67.2708 637.03 65.5003 654.474 60.9938 664.237C58.2576 670.158 55.6824 674.319 53.4291 677.2C47.474 684.882 43.2893 684.242 43.2893 684.242L-27.5283 553.808C-25.275 550.607 -19.9637 545.966 -13.6867 541.165C-2.58119 532.843 11.9042 524.52 18.986 524.2C30.0915 523.88 38.2999 532.522 36.6904 539.724L36.8514 539.884Z" fill="#F8F4F0"/>
<path d="M43.4517 684.882H43.1298C43.1298 684.882 42.8079 684.882 42.8079 684.722L-28.0098 554.288C-28.0098 554.128 -28.0098 553.968 -28.0098 553.808C-25.9174 550.767 -20.767 546.126 -14.0072 541.165C-2.90169 532.843 11.5837 524.36 18.9874 524.2C24.9425 524.04 30.7367 526.441 34.2776 530.602C36.8528 533.643 37.8185 537.164 37.1747 540.364C37.0137 541.325 36.6918 542.285 36.5309 543.405C34.5995 550.767 32.3462 559.89 41.0374 564.211C43.2907 565.331 45.3831 566.291 47.4754 567.091C50.0506 568.212 52.4648 569.332 54.5572 570.452C59.0638 572.853 61.9609 575.574 63.8922 579.095C66.3065 583.576 68.2379 602.141 67.916 620.705C67.916 632.068 66.7893 653.034 61.3171 664.717C58.9028 670.158 56.3276 674.479 53.7524 677.84C48.4411 684.562 44.5783 685.042 43.6126 685.042L43.4517 684.882ZM-26.8831 553.808L43.6126 683.762C44.5783 683.762 48.1192 683.122 52.9477 677.04C55.5229 673.839 58.0981 669.518 60.5123 664.077C65.8236 652.554 66.7893 631.908 66.9503 620.545C67.1112 600.54 65.0189 583.096 62.9266 579.255C60.9952 575.894 58.42 573.333 53.9134 570.932C51.821 569.812 49.4068 568.692 46.9926 567.572C44.9002 566.611 42.8079 565.651 40.5546 564.531C31.2196 559.89 33.6338 549.967 35.5652 542.605C35.8871 541.645 36.048 540.525 36.209 539.724C36.8528 536.844 35.8871 533.643 33.4728 530.762C30.0929 526.761 24.7816 524.52 18.9874 524.68C11.9056 525 -2.90169 533.643 -13.5243 541.485C-19.9623 546.286 -24.7908 550.767 -27.0441 553.648L-26.8831 553.808Z" fill="#101720"/>
<path d="M26.5506 581.175C46.3474 616.544 64.3737 649.993 53.4291 677.36C47.474 685.042 43.2893 684.402 43.2893 684.402L-27.5283 553.968C-25.275 550.767 -19.9637 546.126 -13.6867 541.325C-13.6867 541.325 6.59291 545.806 26.3897 581.175H26.5506Z" fill="#F2CDAC"/>
<path d="M43.4517 684.882H43.1298C43.1298 684.882 42.8079 684.882 42.8079 684.722L-28.0098 554.288C-28.0098 554.128 -28.0098 553.968 -28.0098 553.808C-25.9174 550.767 -20.767 546.126 -14.0072 541.165H-13.6853C-13.5243 541.165 7.07717 546.126 26.713 581.335C45.544 614.944 65.0189 649.833 53.5915 677.84C53.5915 677.84 53.5915 677.84 53.5915 678C48.2802 684.722 44.4174 685.202 43.4517 685.202V684.882ZM-26.8831 553.808L43.6126 683.762C44.5783 683.762 48.1192 683.122 52.9477 677.04C64.0532 649.353 44.7393 614.784 26.0692 581.335C7.72097 548.367 -11.271 542.285 -13.5243 541.645C-19.8014 546.446 -24.6298 550.767 -26.8831 553.808Z" fill="#101720"/>
<path d="M-27.5255 553.808C-19.4781 541.645 5.30811 564.371 25.2658 603.421C45.2235 642.471 55.6852 670.798 43.2921 684.242C30.7381 697.685 0.962475 639.91 -9.82112 616.224C-20.6047 592.538 -34.9292 567.252 -27.3646 553.808H-27.5255Z" fill="#82C9D7"/>
<path d="M38.9443 686.803C38.6224 686.803 38.1396 686.803 37.8177 686.803C20.5961 684.082 -9.01855 619.265 -10.3061 616.544C-11.9156 613.024 -13.5251 609.663 -15.1346 606.142C-25.1135 585.176 -34.4485 565.331 -27.8496 553.648C-26.2401 551.247 -23.8259 549.967 -20.9288 550.127C-9.1795 550.767 10.1344 572.693 25.9074 603.421C45.8651 642.311 56.4878 671.119 43.7728 684.722C42.4852 686.163 40.8757 686.963 39.1053 686.963L38.9443 686.803ZM-27.0449 554.128C-33.3219 565.491 -23.6649 585.976 -14.3299 605.662C-12.7204 609.182 -11.1109 612.703 -9.5014 616.064C1.12124 639.27 24.4589 683.602 37.9786 685.682C39.91 686.002 41.5195 685.362 42.968 683.922C55.3611 670.638 44.7385 642.311 24.9417 603.741C9.65155 573.813 -9.66235 551.567 -21.0897 551.087C-23.6649 550.927 -25.5963 552.048 -27.0449 554.128Z" fill="#101720"/>
<path d="M54.2367 570.452C58.0995 572.533 61.1575 574.934 63.4108 578.935C65.6641 583.096 67.5955 601.18 67.4346 620.385C56.651 616.224 53.7539 589.817 54.2367 570.452Z" fill="#F2CDAC"/>
<path d="M67.4339 620.865C67.4339 620.865 67.4339 620.865 67.273 620.865C56.4894 616.704 53.2704 591.098 53.7532 570.452C53.7532 570.292 53.7533 570.132 54.0752 570.132C54.0752 570.132 54.397 570.132 54.558 570.132C59.0646 572.533 61.9617 575.254 63.8931 578.774C66.3073 583.256 68.2387 601.98 67.9168 620.385C67.9168 620.545 67.9168 620.705 67.7558 620.705C67.7558 620.705 67.5949 620.705 67.4339 620.705V620.865ZM54.7189 571.252C54.397 590.938 57.2941 614.944 66.9511 619.585C66.9511 599.9 65.0197 582.775 62.9274 579.094C61.1569 575.894 58.5817 573.493 54.7189 571.252Z" fill="#101720"/>
<path d="M55.5238 594.939C44.2574 593.978 39.4289 584.536 33.9566 571.092C28.6453 557.969 10.2971 540.044 -1.7741 533.483C-2.096 533.483 -2.096 533.003 -1.93505 532.843C-1.7741 532.683 -1.4522 532.522 -1.29125 532.683C10.9409 539.404 29.45 557.489 34.9223 570.772C40.2336 583.896 44.9012 593.178 55.6848 593.978C56.0067 593.978 56.1676 594.299 56.1676 594.459C56.1676 594.779 56.0067 594.939 55.6848 594.939H55.5238Z" fill="#101720"/>
<path d="M107.509 444.82C118.937 437.298 127.628 423.214 127.628 423.214C127.628 423.214 109.119 434.737 100.266 436.497" fill="#101720"/>
<path d="M107.511 445.3C107.35 445.3 107.189 445.3 107.189 445.14C107.189 444.98 107.189 444.66 107.189 444.5C115.88 438.738 123.284 428.815 126.02 424.814C121.03 427.855 107.672 435.537 100.268 436.978C99.9461 436.978 99.7852 436.978 99.7852 436.657C99.7852 436.337 99.7852 436.177 100.107 436.017C108.798 434.417 127.147 422.894 127.307 422.894C127.468 422.894 127.79 422.894 127.951 422.894C128.112 423.054 128.112 423.214 127.951 423.534C127.951 423.534 118.938 437.778 107.672 445.3C107.672 445.3 107.511 445.3 107.35 445.3H107.511Z" fill="#101720"/>
</svg>

